<?xml version="1.0" encoding="UTF-8"?>
<svg id="Layer_2" data-name="Layer 2" xmlns="http://www.w3.org/2000/svg" viewBox="0 0 188.88 342.16">
  <defs>
    <style>
      .cls-1 {
        fill: #3c3c3b;
      }
    </style>
  </defs>
  <g id="Capa_1" data-name="Capa 1">
    <path class="cls-1" d="M169.36,140.28c12.02-11.37,14.06-19.74,19.52-35.72-11.1-4.09-19.86-5.57-31.38-3.01l-1.76-9.51c-21.5,5.44-22.27,16.7-31.74,38.3-1.36,3.11-6.94,2.18-6.76-1.13,.2-3.5,1.19-7.03,2.66-10.28,3.22-7.15,8.48-13.5,12.38-20.41,9.96-17.69,10.26-39.05,.8-57.07l-6.56,3.24c-2.79-8.74-5.68-17.05-14.87-25.6-.6,.78-2.36,3.26-2.95,4.05-2.94-8.8-6.9-15.77-12.08-23.14-5.49,7.14-9.75,13.93-13.05,22.61-.56-.81-2.21-3.36-2.78-4.17-9.55,8.15-12.8,16.33-15.95,24.94l-6.41-3.5c-10.21,17.59-10.81,38.94-1.62,57.04,3.59,7.07,8.58,13.64,11.5,20.91,1.33,3.31,2.17,6.88,2.21,10.38,.05,3.32-5.57,4.01-6.81,.85-8.54-21.98-8.83-33.27-30.08-39.62l-2.16,9.43c-11.4-3.04-20.21-1.94-31.48,1.69,4.77,16.19,6.46,24.64,17.99,36.5-1.11,1.55-5.45,2.9-7.27,2.55,9.4,24.27,34.14,37.11,53.98,43.7l-11.79,144.27s9.51,14.58,41.53,14.58c25.46,0,41.53-14.31,41.53-14.31l-11.68-144.41c19.44-6.09,42.42-17.84,52.23-40.3-1.82,.27-6.11-1.27-7.15-2.85Z"/>
  </g>
</svg>