<?xml version="1.0" encoding="UTF-8"?>
<svg id="Layer_2" data-name="Layer 2" xmlns="http://www.w3.org/2000/svg" viewBox="0 0 148.24 349.74">
  <defs>
    <style>
      .cls-1 {
        fill-rule: evenodd;
      }

      .cls-1, .cls-2 {
        fill: #3c3c3b;
      }
    </style>
  </defs>
  <g id="Capa_1" data-name="Capa 1">
    <g>
      <g>
        <path class="cls-1" d="M37.6,112.48c-1.76-4.61-2.3-9.25,2.96-13.29,2.51-1.93,3.86-5.34,5.88-7.97,5.17-6.73,11.95-9.92,20.39-8.19,7.13,1.45,15.39,10.88,16.1,18.22,.56,5.79-.44,10.96-6.52,13.99-3.6,1.79-6.96,4.22-10.12,6.74-12.73,10.12-23.66,6.75-28.68-9.49Z"/>
        <path class="cls-1" d="M100.33,168.83c3.7,12.64,.2,19.45-12.17,23.66-7.97,2.72-14.45-.19-18.05-7.96-1.39-3.01-3.17-5.86-4.59-8.86-3.95-8.35-1.53-14.29,7.24-17.6,2.42-.91,4.98-1.49,7.54-1.92,12.08-2.09,16.56,.79,20.04,12.68Z"/>
        <path class="cls-1" d="M82.57,237.97c-14.31,3.71-20.46,0-24.04-14.53-2.12-8.61,2.8-17.78,10.77-20.04,11.39-3.23,23.41,3.5,26.02,14.56,2.2,9.34-2.98,17.47-12.75,20Z"/>
        <path class="cls-1" d="M45.2,168.85c-9.76,2.79-17.75-2.63-20.95-14.23-2.41-8.73,3.93-17.57,14.97-20.9,7.93-2.39,17.01,3.35,19.33,12.21,2.87,11.01-2.21,19.73-13.34,22.92Z"/>
        <path class="cls-1" d="M102.21,129.82c2.95,11.58-2.22,18.75-13.95,19.42-3.67,.21-7.39,.24-10.98,.89-6.8,1.23-10.36-2.97-13.27-7.78-3.09-5.11-.16-9.41,3.5-12.61,4.41-3.85,9.19-7.47,14.32-10.25,8.01-4.34,18,1,20.37,10.33Z"/>
        <path class="cls-1" d="M119.78,149.55c11.85-1.48,18.33,4.54,17.54,16.26-.25,3.66-.68,7.36-.48,11.01,.37,6.9-4.24,9.91-9.37,12.19-5.46,2.43-9.36-1.01-12.08-5.04-3.27-4.86-6.27-10.05-8.39-15.48-3.31-8.49,3.23-17.73,12.78-18.93Z"/>
        <path class="cls-1" d="M88.82,26.22c10.01-3.22,19.69,3.42,19.87,14.13,.05,2.52-1.72,5.46-3.48,7.51-2.62,3.07-6.17,5.32-8.95,8.28-3.69,3.91-7.26,3.44-10.51-.04-1.97-2.11-3.13-4.96-4.71-7.44-8.1-12.67-6.29-17.92,7.77-22.43Z"/>
        <path class="cls-1" d="M45.15,177.55c10.01-3.22,19.69,3.42,19.88,14.13,.04,2.52-1.72,5.46-3.48,7.51-2.62,3.07-6.17,5.32-8.95,8.28-3.69,3.91-7.26,3.44-10.51-.05-1.97-2.11-3.13-4.96-4.71-7.44-8.1-12.67-6.29-17.92,7.76-22.44Z"/>
        <path class="cls-1" d="M58.38,45.51c7.99-2.42,11.87-.59,16.89,7.96,3.35,5.72,2.98,8.13-3.72,14.05-3.49,3.08-7.53,5.95-11.83,7.62-5.23,2.03-10.17,.15-13.69-4.44-3.5-4.56-3.84-9.11-.77-14.29,3.15-5.33,6.99-9.37,13.12-10.89Z"/>
        <path class="cls-1" d="M98.19,211.29c-2.87-7.85-1.26-11.82,7-17.31,5.52-3.66,7.95-3.43,14.24,2.93,3.27,3.31,6.36,7.19,8.26,11.39,2.32,5.11,.72,10.14-3.67,13.92-4.36,3.74-8.89,4.34-14.23,1.57-5.49-2.84-9.74-6.46-11.6-12.49Z"/>
        <path class="cls-1" d="M41.9,76.68c1.49,7.27-.16,12.73-4.66,17.3-4.12,4.18-14.61,6.45-18.61,3.13-3.08-2.55-5.83-6.97-6.31-10.86-1.24-10.27,10.32-20.47,20.34-17.84,3.56,.93,6.18,5.4,9.24,8.26Z"/>
        <path class="cls-1" d="M48.08,41.21c-3.05-6.47-12.69-10.01-6.92-19.26,4.43-7.11,13.44-11.04,19.88-9.06,5.42,1.66,9.64,7,9.31,12.32-.42,6.91-4.47,13.72-22.28,16.01Z"/>
        <path class="cls-1" d="M111.4,135.97c.61-6.54,1.06-11.29,1.49-15.95,15.54-4.09,26.84,5.12,25.23,20.31-.7,6.61-4.61,8.76-10.48,5.46-5.47-3.07-10.74-6.47-16.24-9.81Z"/>
        <path class="cls-1" d="M33.18,118.83c1.94,6.13-3.27,15.15-10.13,17.55-5.59,1.96-13.07-2.29-14.75-8.39-1.6-5.82,3.79-15.94,9.63-18.07,6.27-2.29,12.94,1.61,15.25,8.91Z"/>
        <path class="cls-1" d="M93.31,246.18c-1.17,8.97-1.95,17.39-3.57,25.64-.45,2.29-3.06,5.05-5.32,5.87-3.49,1.28-4.94-1.91-6.02-4.85-1.01-2.76-2.11-5.53-3.47-8.13-2.7-5.14-4.54-10.04,.05-15.25,4.29-4.87,7.53-5.75,18.32-3.29Z"/>
        <path class="cls-1" d="M88.8,112.45c-.25-4.37-.53-8.38-.68-12.39-.19-5.29,3.12-8.21,7.49-9.9,4.65-1.8,8.71-.57,11.85,3.5,3.72,4.83,4.18,10.33,2.75,15.85-1.46,5.67-6.13,7.77-11.98,6.05-3.18-.94-6.3-2.06-9.43-3.1Z"/>
        <path class="cls-1" d="M107.21,84.32c-2.37-7.6-4.4-14.1-6.72-21.53,1.8-1.58,4.14-3.77,6.61-5.79,5.66-4.62,8.83-4.61,13.2-.12,5.44,5.58,6.17,11.99,1.23,16.49-4.33,3.94-9.31,7.17-14.31,10.95Z"/>
        <path class="cls-1" d="M83.88,89.41c-2.15-5.66-11.62-6.7-8.38-15.11,1.92-4.97,10.64-9.06,15.81-7.87,7.49,1.73,7.88,7.69,8.32,14.26-5.07,2.8-10.07,5.57-15.75,8.71Z"/>
        <path class="cls-1" d="M66.89,5.64C71.77-.03,77.35-1.34,83.79,1.33c4.27,1.77,7.28,4.73,7.59,9.78,.54,8.85-6.63,10.25-12.55,13.57-3.93-6.27-7.67-12.24-11.93-19.05Z"/>
        <path class="cls-1" d="M24.18,59.59c-2.34-9.65-.58-16.32,5.97-19.8,2.48-1.32,7.01-1.71,8.98-.28,2.01,1.45,3.2,5.88,2.69,8.62-1.59,8.53-7.23,11.99-17.64,11.45Z"/>
        <path class="cls-1" d="M112.81,88.03c4.17-3.3,7.71-6.51,12.54-3.27,4.5,3.02,6.09,7.91,5.05,12.71-1.28,5.96-5.58,9.41-11.83,9-1.91-6.1-3.73-11.97-5.75-18.44Z"/>
        <path class="cls-1" d="M21.05,175.03c-4.85,2.19-9.06,4.44-12.96,.12-3.62-4.02-3.98-9.16-1.8-13.56,2.7-5.46,7.7-7.76,13.67-5.84,.36,6.38,.7,12.52,1.08,19.29Z"/>
        <path class="cls-1" d="M86.73,295.71c-1.41-4.49-2.34-7.46-3.43-10.98q5.04,2.6,3.43,10.98Z"/>
      </g>
      <path class="cls-2" d="M146.61,200.05c-55.42,37.5-65.04,63.48-69.67,102.73-4.63-39.24-18.98-88.29-74.4-125.8,0,0-21.55,103.45,60.83,150.44-.19,.94-.3,1.91-.3,2.91l.02,5.25c.02,7.84,6.39,14.18,14.24,14.16,7.84-.02,14.18-6.39,14.16-14.24v-5.25c-.01-1.08-.16-2.12-.39-3.13,71.99-41.11,55.52-127.08,55.52-127.08Z"/>
    </g>
  </g>
</svg>