<?xml version="1.0" encoding="UTF-8"?>
<svg id="Layer_2" data-name="Layer 2" xmlns="http://www.w3.org/2000/svg" viewBox="0 0 263.48 337.57">
  <defs>
    <style>
      .cls-1 {
        fill: #fff;
      }

      .cls-1, .cls-2 {
        fill-rule: evenodd;
      }

      .cls-2, .cls-3 {
        fill: #3c3c3b;
      }
    </style>
  </defs>
  <g id="Capa_1" data-name="Capa 1">
    <g>
      <path class="cls-2" d="M131.74,337.57c-53.88,0-116.37-32.45-130.17-123.52C-6.45,161.08,16.91,88.7,57.12,41.94,80.71,14.5,106.52,0,131.74,0s51.03,14.5,74.62,41.94c40.21,46.76,63.58,119.14,55.56,172.11-13.8,91.08-76.29,123.53-130.18,123.53Z"/>
      <path class="cls-1" d="M131.74,323.86c-49.56,0-104.22-30.09-116.61-111.86C2.99,131.84,68.45,13.72,131.74,13.72s128.75,118.12,116.62,198.28c-12.39,81.78-67.05,111.86-116.62,111.86Z"/>
      <path class="cls-3" d="M199.87,206.29c0,37.63-30.5,68.13-68.13,68.13s-68.13-30.5-68.13-68.13,30.5-68.13,68.13-68.13,68.13,30.5,68.13,68.13Z"/>
    </g>
  </g>
</svg>