<?xml version="1.0" encoding="UTF-8"?>
<svg id="Layer_2" data-name="Layer 2" xmlns="http://www.w3.org/2000/svg" viewBox="0 0 409.58 186.02">
  <defs>
    <style>
      .cls-1 {
        fill: #fff;
      }

      .cls-2 {
        fill: #3c3c3b;
      }
    </style>
  </defs>
  <g id="Capa_1" data-name="Capa 1">
    <g>
      <path class="cls-2" d="M236.71,0C168.91,0,108.68,32.76,70.6,83.5,51.07,56.6,27.17,33.17,0,14.19c4.75,25.55,24.44,51.88,24.44,78.82S4.75,146.28,0,171.83c27.17-18.97,51.07-42.4,70.6-69.3,38.07,50.74,98.3,83.49,166.11,83.49,71.95,0,135.4-36.88,172.87-93.01C372.11,36.89,308.67,0,236.71,0Z"/>
      <path class="cls-1" d="M345.15,73.73c0,8.89-7.2,16.09-16.09,16.09s-16.09-7.21-16.09-16.09,7.2-16.09,16.09-16.09,16.09,7.21,16.09,16.09Z"/>
    </g>
  </g>
</svg>