<?xml version="1.0" encoding="UTF-8"?>
<svg id="Layer_2" data-name="Layer 2" xmlns="http://www.w3.org/2000/svg" viewBox="0 0 185.25 359.89">
  <defs>
    <style>
      .cls-1 {
        fill: #3c3c3b;
      }
    </style>
  </defs>
  <g id="Capa_1" data-name="Capa 1">
    <path class="cls-1" d="M185.25,145.75c-45.74,0-83.45,34.27-88.91,78.53v-65.53c49.17-.38,88.91-40.34,88.91-89.6-45.74,0-83.45,34.27-88.91,78.52v-24.91c31.22-35.19,30-89.06-3.71-122.77-33.71,33.71-34.93,87.58-3.71,122.77v24.92C83.45,103.43,45.74,69.15,0,69.15c0,49.26,39.74,89.22,88.91,89.6v65.54c-5.46-44.26-43.17-78.54-88.91-78.54,0,49.26,39.74,89.22,88.91,89.6v65.54c-5.46-44.26-43.17-78.54-88.91-78.54H0c0,49.26,39.74,89.22,88.91,89.6v41.4c0,4.11,1.67,6.52,3.71,6.52s3.71-2.41,3.71-6.52v-41.4c49.17-.38,88.91-40.34,88.91-89.6h0c-45.74,0-83.45,34.27-88.91,78.53v-65.53c49.17-.38,88.91-40.34,88.91-89.6Z"/>
  </g>
</svg>