<?xml version="1.0" encoding="UTF-8"?>
<svg id="Layer_2" data-name="Layer 2" xmlns="http://www.w3.org/2000/svg" viewBox="0 0 261 301.61">
  <defs>
    <style>
      .cls-1 {
        fill: #fff;
      }

      .cls-2 {
        fill: #3c3c3b;
      }
    </style>
  </defs>
  <g id="Capa_1" data-name="Capa 1">
    <g>
      <path class="cls-2" d="M234.99,301.61H26.01c-15.08,0-26.01-8.63-26.01-20.52,0-11.03,4.7-18.22,5.45-19.31L90.69,115.48V20.64c-7.77-7.91-10.55-13.12-9.02-16.83,.55-1.31,2.13-3.5,6.63-3.5,.35,0,.67,.01,.93,.03,1.11-.23,2.44-.35,3.96-.35,2.46,0,4.79,.3,5.5,.41h63.63c.71-.1,3.04-.41,5.5-.41,1.52,0,2.84,.12,3.95,.35,.26-.02,.58-.03,.93-.03,4.5,0,6.08,2.19,6.62,3.5,1.53,3.71-1.25,8.91-9.01,16.83V115.48l85.23,146.31c.75,1.09,5.46,8.28,5.46,19.31,0,11.89-10.95,20.52-26.02,20.52Z"/>
      <path class="cls-1" d="M75.67,172.36l-52.64,87.31s-5.72,10.66-3.02,18.44c2.7,7.79,10.05,10.45,28.62,10.11,24.17-.43,173.34,0,173.34,0,0,0,16.01,1.71,18.93-9.48,3.25-12.5-1.75-18.61-11.29-33.55-9.54-14.94-41.03-66.47-41.03-66.47,0,0-9.44,8.76-24.06,10.98-12.42,1.89-27.38,2.04-45.12-4.46-11.19-4.1-39.28-18.13-43.73-12.88Z"/>
    </g>
  </g>
</svg>