<?xml version="1.0" encoding="UTF-8"?>
<svg id="Layer_2" data-name="Layer 2" xmlns="http://www.w3.org/2000/svg" viewBox="0 0 303.3 312.75">
  <defs>
    <style>
      .cls-1 {
        fill: #fff;
        stroke: #3c3c3b;
        stroke-miterlimit: 10;
        stroke-width: 10.2px;
      }

      .cls-2 {
        fill: #3c3c3b;
      }
    </style>
  </defs>
  <g id="Capa_1" data-name="Capa 1">
    <g>
      <path class="cls-1" d="M12.56,85.63c16.75,19.38,40.53,8.64,40.53,8.64l40.75,44.09,3.07,3.32,40.76,44.1s-12.57,22.86,5.43,41.08c17.84,18.05,50.61,8.23,52.9-20.28,28.6-.05,40.96-31.94,24.37-51.15-16.75-19.38-40.52-8.64-40.52-8.64l-40.76-44.09-3.08-3.33-40.75-44.09s12.57-22.85-5.43-41.07C72-3.85,39.23,5.97,36.93,34.49c-28.6,.05-40.97,31.95-24.37,51.15Z"/>
      <path class="cls-2" d="M117.25,97.48c-13.99-.55-13.49,8.7-13.49,8.7,0,0-9.18-1.23-9.73,12.77,0,0-15.66-1.18-9.82,8.39,0,0,21.5,36.93,24.17,76.01,2.32,33.92,8.3,62.42,27.56,83.52,32.81,35.95,94.3,33.69,132.96-2.03,38.65-35.73,47.43-92.91,12.47-132.39-18.94-21.38-47.46-29.06-81.09-34.03-38.75-5.73-73.88-30.06-73.88-30.06-9.08-6.57-9.13,9.13-9.13,9.13Z"/>
    </g>
  </g>
</svg>