<?xml version="1.0" encoding="UTF-8"?>
<svg id="Layer_2" data-name="Layer 2" xmlns="http://www.w3.org/2000/svg" viewBox="0 0 148.72 340.8">
  <defs>
    <style>
      .cls-1 {
        fill: #fff;
      }

      .cls-2 {
        fill: #3c3c3b;
      }
    </style>
  </defs>
  <g id="Capa_1" data-name="Capa 1">
    <g>
      <path class="cls-2" d="M4.52,129.49l.07-.32,.1-.32L31.39,37.38c.27-1.08,.62-2.13,1.04-3.15-6.53-2.62-11.15-9.01-11.15-16.48C21.27,7.95,29.22,0,39.03,0H109.52c9.81,0,17.75,7.95,17.75,17.76,0,7.47-4.61,13.85-11.14,16.48,.42,1.02,.77,2.07,1.04,3.15l26.7,91.46,.09,.32,.07,.32c5.41,23.34,4.85,41.16,4.43,54.18-.06,1.74-.11,3.38-.14,4.9v100.78c0,28.37-23.08,51.44-51.45,51.44H51.68C23.31,340.8,.23,317.72,.23,289.35v-104.49l-.03-1.16c-.37-14.29-.82-32.07,4.31-54.21Z"/>
      <path class="cls-1" d="M11.95,165.82c.34,.12,.69,.21,1.03,.33,1.13,.38,8.25,2.33,8.47,2.38,1.25,.28,14.48,3.15,26.21,1.06,20.19-3.59,37.89-14.97,55.89-23.99,13.76-6.89,24.79-6.28,24.79-6.28,1.31,.05,5.16,.65,5.77,.8,3.81,20.94,2.59,36.79,2.35,48.25v100.98c0,21.85-17.72,39.57-39.58,39.57H51.68c-21.86,0-39.57-17.72-39.57-39.57v-104.62c-.14-5.73-.33-12.01-.16-18.91Z"/>
    </g>
  </g>
</svg>