<?xml version="1.0" encoding="UTF-8"?>
<svg id="Layer_2" data-name="Layer 2" xmlns="http://www.w3.org/2000/svg" viewBox="0 0 342.29 286.26">
  <defs>
    <style>
      .cls-1 {
        fill: #3c3c3b;
      }
    </style>
  </defs>
  <g id="Capa_1" data-name="Capa 1">
    <path class="cls-1" d="M315.7,101.26l-3.65-1.38-48.48,60.84c-.82,1.1-2.07,1.67-3.35,1.67-.86,0-1.73-.27-2.48-.82-1.84-1.38-2.22-3.98-.85-5.82l50.99-64.19,.35-8.05c.87-20.01-14.04-37.21-33.96-39.21l-12.15-1.22-33.66,88.89c-.62,1.72-2.21,2.79-3.91,2.79-.48,0-.96-.08-1.43-.26-2.16-.81-3.27-3.25-2.48-5.45l34.15-90.23,1.64-3.86c-7.07-17.2-26.1-27.13-44.83-22.02l-3.58,.98-14.58,105.9c-.27,2.14-2.06,3.69-4.12,3.69-.18,0-.35,0-.54-.03-2.28-.3-3.89-2.42-3.6-4.74l14.58-105.85-.2-1.11-6.1-4.47c-13.29-9.75-31.36-9.75-44.65,0l-6.09,4.46-.21,1.15,13.9,103.11c.29,2.32-1.32,4.44-3.6,4.74-.18,.02-.36,.03-.54,.03-2.06,0-3.85-1.56-4.12-3.69l-13.9-103.2-3.58-.98c-19.37-5.27-39.05,5.51-45.51,23.78l2.22,4.36,35.92,93.08c.79,2.16-.32,4.55-2.48,5.34-.47,.17-.95,.25-1.43,.25-1.7,0-3.29-1.05-3.91-2.73L79.67,44.17l-.6-.98-11.06,1.11c-19.93,1.99-34.83,19.2-33.96,39.21l.31,7.11,53.35,67.82c1.37,1.85,.99,4.45-.85,5.82-.75,.56-1.62,.82-2.48,.82-1.27,0-2.53-.57-3.34-1.67L30.75,99.69l-4.17,1.57C8.69,108.01-2.18,126.22,.37,145.17c1.42,10.59,6.91,20.2,15.31,26.81l89.8,70.69-2.89,8.66c-2.19,6.59-2.18,13.9,.87,20.14,4.99,10.23,15.43,15.67,25.92,14.65l41.77,.12,41.77-.12c10.49,1.02,20.93-4.42,25.92-14.65,3.04-6.24,3.07-13.55,.87-20.14l-2.89-8.67,89.8-70.69c8.39-6.61,13.88-16.22,15.31-26.81,2.54-18.96-8.33-37.16-26.22-43.91Z"/>
  </g>
</svg>