<?xml version="1.0" encoding="UTF-8"?>
<svg id="Layer_2" data-name="Layer 2" xmlns="http://www.w3.org/2000/svg" viewBox="0 0 224.23 321.69">
  <defs>
    <style>
      .cls-1 {
        fill: #3c3c3b;
        fill-rule: evenodd;
      }
    </style>
  </defs>
  <g id="Capa_1" data-name="Capa 1">
    <g>
      <path class="cls-1" d="M117.71,145.69c-56.41,11.39-88.74,40.91-88.74,40.91,15.08,63.46,63.73,121.43,109.91,121.51,3.24,9.25,11.38,15.06,19.24,13.25,7.84-1.78,12.59-10.5,11.58-20.16,13.49-6.47,25.08-17.18,34.02-31.46,3.46-5.52,6.52-11.54,9.12-18.1,11.14-27.74,10.16-74.5,2.72-107.99,0,0-39.89-9.66-97.85,2.04Z"/>
      <path class="cls-1" d="M22.07,178c26.23-18.91,57.97-33.46,93.43-41.44,35.33-7.95,70.12-8.42,101.83-2.63l.95-1.95c5.72-11.99,7.38-24.39,4.74-35.84-8.51-36.98-56.94-56.94-113.27-48.49-1.49-16.54-8.55-32.41-20.44-44.32-4.43-4.42-11.58-4.43-15.98-.03-4.46,4.41-4.41,11.55-.03,15.98,8.83,8.82,13.86,20.82,14.25,33.21-34.48,9.64-63.19,28.48-77.67,51.6C1.02,118.23-1.96,133.11,1.27,147.14c2.63,11.45,9.54,21.89,19.93,30.17l.87,.68Z"/>
    </g>
  </g>
</svg>