<?xml version="1.0" encoding="UTF-8"?>
<svg id="Layer_2" data-name="Layer 2" xmlns="http://www.w3.org/2000/svg" viewBox="0 0 186.84 337">
  <defs>
    <style>
      .cls-1 {
        fill: #fff;
      }

      .cls-2 {
        fill: #3c3c3b;
      }
    </style>
  </defs>
  <g id="Capa_1" data-name="Capa 1">
    <g>
      <path class="cls-2" d="M180.4,209.4h0c-.95-2.43-2.01-4.79-3.15-7.11-4.92-11.77-13.88-36.13-13.88-57.59,0-22.8,2.18-50.88,3.18-62.58,.15-1.32,.43-5.52,.43-5.52,.04-.99,.07-1.98,.07-2.98C167.03,32.96,134.07,0,93.42,0S19.81,32.96,19.81,73.61c0,1,.64,8.25,3.77,23.31,3.17,15.28,5.29,36.22,4.37,50.29-.94,14.35-11.54,39.97-17.46,53.3-1.45,2.79-2.77,5.66-3.94,8.6h0c-4.23,10.66-6.56,22.29-6.56,34.46,0,51.59,41.83,93.42,93.42,93.42s93.42-41.83,93.42-93.42c0-12.06-2.29-23.59-6.45-34.17Z"/>
      <path class="cls-1" d="M69.84,271.57c4.92,10.68,2.93,22.1-4.45,25.5-7.37,3.4-17.35-2.51-22.27-13.19-4.92-10.69-2.93-22.1,4.45-25.5,7.38-3.4,17.35,2.51,22.27,13.19Z"/>
      <path class="cls-1" d="M60.4,224.83c2.94,6.37,1.75,13.18-2.65,15.2-4.4,2.03-10.34-1.49-13.28-7.87-2.93-6.37-1.75-13.18,2.65-15.2,4.4-2.03,10.34,1.5,13.27,7.86Z"/>
      <path class="cls-1" d="M91.18,247.08c3.24,7.04,1.93,14.55-2.93,16.79-4.86,2.24-11.42-1.65-14.66-8.69-3.24-7.04-1.93-14.55,2.93-16.79,4.86-2.24,11.42,1.65,14.66,8.69Z"/>
    </g>
  </g>
</svg>