<?xml version="1.0" encoding="UTF-8"?>
<svg id="Layer_2" data-name="Layer 2" xmlns="http://www.w3.org/2000/svg" viewBox="0 0 411.38 232">
  <defs>
    <style>
      .cls-1 {
        fill: #fff;
      }

      .cls-2 {
        fill: #3c3c3b;
      }
    </style>
  </defs>
  <g id="Capa_1" data-name="Capa 1">
    <g>
      <path class="cls-2" d="M409.67,17.76c-2.06-1.77-5.18-1.53-6.95,.53-3.02,3.52-6.74,4.75-9.84,5.06,.67-5.7-1.37-11.98-5.8-17.65-4.24-5.41-11.12-7.23-16.37-4.34-3.93,2.16-7.47,7.6-4.55,15.79,1.81,5.1,5.79,9.5,10.92,12.41-1.12,.6-2.38,1.15-3.8,1.66-1.37,.49-2.72,.83-4.07,1.11C354.02,12.67,330.23,0,303.47,0L133.4,9.77c-16.61,0-34.82,10.72-52.2,24.73-5-5.18-12.06-9.85-22.04-13.01,0,0-2.29,8.8-1.91,18.82-3.09-2.22-6.89-4.18-11.61-5.68,0,0-5,19.22,3.87,28.93-17.12,17.09-27.82,32.41-35.35,35.58l-12.49-3.42-1.68,20.27s17.99,30.41,84.49,30.47h0c6.09,.3,12.23,.44,18.29,.49,0,0-2.76,52.81-6.82,69.89-.94,3.95-5.87,15.14-5.87,15.14h22.47l25.65-58.73s-1.79,32.94-4.33,43.59c-.94,3.95-5.86,15.14-5.86,15.14h22.46l33.7-77.17c44.98,16.43,73.54,13.45,104.52,8.25,0,0,7.61,31,7.39,38.44-.32,10.86-13.95,30.47-13.95,30.47h27.84s9.38-44.49,9.77-59.59c.1-3.97-1.76-15.81-1.76-15.81,3.86-1.09,5.99-1.81,5.99-1.81,0,0,10.32,35.43,10.04,45.05-.32,10.85-13.95,32.15-13.95,32.15h27.84s4.95-31.7,6.92-42.22c3.66-19.53,.19-41.25,.19-41.25,22.02-10.28,31.48-32.82,31.48-65.5,0-15.35-4.19-29.72-11.45-42.06,.51-.16,1.01-.29,1.53-.47,5.62-2,9.33-4.65,11.77-7.35,8.46,.86,16.49-2.21,21.84-8.44,1.77-2.07,1.54-5.18-.53-6.95Zm-34.24-3.92c-.75-2.11-.56-3.53,.03-3.86,.23-.12,.56-.18,.96-.13,.82,.1,1.91,.65,2.9,1.92,2.6,3.33,3.96,6.88,3.82,9.84-3.68-1.74-6.56-4.57-7.7-7.77Z"/>
      <path class="cls-1" d="M75.89,75.65c0,3.09-2.51,5.6-5.6,5.6s-5.6-2.51-5.6-5.6,2.51-5.6,5.6-5.6,5.6,2.51,5.6,5.6Z"/>
    </g>
  </g>
</svg>