<?xml version="1.0" encoding="UTF-8"?>
<svg id="Layer_2" data-name="Layer 2" xmlns="http://www.w3.org/2000/svg" viewBox="0 0 299.86 290.24">
  <defs>
    <style>
      .cls-1 {
        fill: #fff;
      }

      .cls-2 {
        fill: #3c3c3b;
      }
    </style>
  </defs>
  <g id="Capa_1" data-name="Capa 1">
    <g>
      <path class="cls-2" d="M117.69,223.83c-.15-.47-.26-.68-.28-.9-.32-2.52-1.54-4.6-3.18-6.48-.25-.29-.43-1.05-.25-1.25,3.06-3.4,4.73-7.6,6.79-11.58,.82-1.59,1.72-3.17,2.82-4.59,1.48-1.92,3.62-2.65,6.01-2.86,4.01-.35,7.94,.17,11.89,.79,1.32,.21,2.65,.35,3.99,.43,.34,.02,.7-.33,1.04-.51-.27-.28-.49-.73-.81-.82-5.89-1.68-11.83-3.15-18.03-2.54-4.53,.45-7.54,3.2-9.71,6.93-2.16,3.71-4.16,7.51-6.24,11.27-.8,1.45-.8,1.43-2.14,.45-1.43-1.05-2.86-2.09-4.3-3.12-.53-.37-.75-.69-.32-1.34,3.74-5.51,7.5-11,11.12-16.58,1.42-2.2,3.41-3.28,5.81-3.9,4-1.04,8.07-.85,12.11-.64,4.29,.23,18.98,.93,22.04,.82,.34-.01,.68-.14,1.01-.22,.03-.13,.07-.25,.11-.38-.43-.14-.85-.38-1.29-.42-2.47-.23-4.95-.39-7.42-.63-6.28-.6-12.55-1.27-18.83-1.81-1.92-.16-3.86-.06-5.79,.04-5.52,.29-9.77,2.72-12.92,7.36-2.99,4.39-6.32,8.56-9.45,12.86-.69,.95-1.24,1.16-2.11,.24-.94-1.01-1.97-1.93-2.97-2.89-.49-.46-.55-.89,0-1.38,5.44-4.82,9.08-11.05,13.19-16.9,1.27-1.81,2.45-3.67,3.74-5.46,2.24-3.12,5.36-4.27,9.04-3.49,4.62,.97,9.19,2.2,13.79,3.29,1.09,.26,2.2,.44,3.36,.66,.22-1.38-.75-1.55-1.46-1.77-5.12-1.57-10.23-3.17-15.4-4.55-1.59-.43-3.36-.35-5.03-.21-2.39,.19-4.53,1.23-6.15,2.99-2.97,3.21-13.7,15.7-16.21,18.63-.52,.61-1.16,1.13-1.82,1.76-.65-1.58-1.27-3.01-1.79-4.47-.08-.24,.2-.76,.46-.96,6.4-5.05,11.25-11.57,16.8-17.43,2.68-2.83,5.44-5.61,8.39-8.13,2.51-2.14,5.57-3.1,8.95-2.27,3.36,.83,6.71,1.7,10.06,2.57,1.27,.33,2.51,.75,3.77,1.13,.09-.14,.17-.27,.27-.41-.33-.3-.6-.71-.98-.89-4.74-2.4-9.73-4.1-14.99-4.86-3.91-.57-7.17,1.16-10.23,3.25-5.17,3.54-20.99,19.18-24.59,22.48-1.39,1.27-1.76,1.11-2.34-.72-.02-.08-.04-.15-.06-.23-.73-2.44-.56-2.25,1.31-3.89,3.24-2.82,17.7-18.41,21.88-23.18,5.06-5.77,11.21-7.11,18.41-4.74,3.32,1.09,6.75,1.87,10.15,2.72,.39,.1,.89-.2,1.34-.32-.34-.28-.63-.68-1.01-.83-4.36-1.6-8.66-3.43-13.12-4.68-6.68-1.86-12.9-.7-17.92,4.36-4.78,4.81-18.91,19.65-21.39,22.07-.27,.26-.61,.43-1.33,.92-.01-2.81,0-5.23-.03-7.66-.03-2.45,.9-4.35,2.62-6.15,5.27-5.49,8.03-12.33,10.25-19.48,2.39-7.71,6.3-14.43,12.89-19.48,8.7-6.67,16.49-14.31,22.75-23.38,5.81-8.41,13.63-14.29,22.89-18.27,6.47-2.79,39.95-16.43,49.32-22.33,3.47-2.18,11.42-7.76,11.67-8.24-.53-.11-1.17-.47-1.58-.3-2.33,.95-4.67,1.91-6.89,3.1-11.17,5.96-37.59,17.06-39.19,17.6-5.74,1.95-11.44,4.01-17.21,5.87-2.38,.77-4.9,1.14-7.36,1.66-.41,.09-.85,.04-1.62,.06,1.53-1.47,2.8-2.77,4.17-3.96,.83-.71,1.86-1.18,2.72-1.86,.36-.28,.5-.83,.75-1.26-.47,.02-.98-.06-1.39,.1-1.8,.69-3.57,1.46-5.36,2.17-.45,.18-.96,.21-1.45,.32-.09-.1-.19-.2-.29-.3,.69-.9,6.02-5.56,8.12-6.79,2.47-1.45,5.07-2.67,7.6-4.02,.42-.22,.78-.58,1.16-.87-.05-.16-.1-.32-.16-.48-4.82,.86-9.64,1.72-14.45,2.58-.04-.12-.09-.23-.13-.35,.34-.18,21.72-8.84,32.32-12.32,8.93-2.93,17.39-6.98,25.95-10.81,4.1-1.83,8.31-3.42,12.38-5.32,5.39-2.52,10.73-5.15,16.01-7.89,3.49-1.81,6.85-3.89,10.25-5.87,.31-.18,.54-.5,.81-.76-.03-.13-.06-.26-.1-.38-.64,.06-1.31,.02-1.91,.21-1.57,.5-3.13,1.06-4.66,1.69-8.05,3.3-66.52,26.16-74.1,28.55-6.53,2.05-20.59,5.29-20.99,5.14,.63-.25,1.27-.51,1.91-.74,11.13-4.01,22.25-8,33.38-12.02,9.79-3.53,19.74-6.66,29.3-10.73,11.91-5.07,23.86-10.15,35.17-16.55,4.8-2.71,9.81-5.06,14.62-7.75,4.57-2.56,9.01-5.34,13.49-8.05,.34-.2,.51-.68,.75-1.03-.45-.1-.96-.41-1.33-.28-1.89,.66-3.8,1.32-5.61,2.17-8.03,3.76-16.08,7.47-24.02,11.42-7.09,3.52-14.5,6.18-21.95,8.76-11.5,3.99-23.17,7.52-34.66,11.55-13.52,4.75-27.38,8.28-41.12,12.27-16.43,4.77-32.74,9.94-48.5,16.7-12.97,5.56-37.25,20.88-37.49,21.05-7.39,5.3-44.08,31.54-52.07,68.91-2.53,11.84-4.46,23.47-1.88,35.43,.79,3.65,2.13,7.17,3.23,10.74,3.15,10.16,21.29,40.32,25.89,45.67,4.38,5.09,9.17,9.73,14.25,14.14,16.97,14.75,40.65,23.88,47.97,26.29,14.07,4.63,28.49,5.88,43.21,4.7,15.09-1.21,29.77-4.07,43.67-10.18,14.33-6.3,26.44-15.63,36.17-27.88,5.14-6.47,9.74-13.38,14.83-19.89,6.16-7.88,29.89-35.61,35.82-41.31,6.73-6.46,13.62-12.85,21.85-17.44,3.46-1.93,7.14-3.49,10.73-5.19,1.19-.56,1.36-1.15,.29-1.93-.73-.53-1.63-.89-2.52-1.11-15.03-3.73-30.26-4.57-45.65-3.35-6.08,.48-12.06,1.48-17.81,3.51-2.25,.79-4.37,1.98-6.47,3.15-3.09,1.72-4.37,4.88-5.88,7.81-3.3,6.41-5.27,13.32-7.67,20.08-2.58,7.28-5.15,14.58-8.16,21.68-5.47,12.93-15.22,21.62-28.05,27-8.61,3.61-26.4,7.64-43.1-7.37-1.25-1.12-2.95-1.65-4.41-2.49-.72-.41-.77-.91-.19-1.51,3.38-3.5,4.89-7.94,6.11-12.5,.49-1.83,1.75-2.6,3.41-3.02,3.55-.89,7.04-.4,10.53,.41,.56,.13,1.67,.07,1.71-.1,.25-1.02-.76-1-1.34-1.22-3.63-1.33-7.36-1.69-11.17-1.06-2.65,.44-4.51,1.87-5.69,4.29-1.82,3.72-3.6,7.45-6.87,10.23-.81,.69-1.29,.72-2.07,.06-2.66-2.27-2.73-2.29-.61-5.02,2.56-3.3,5.73-13.4,6.1-14.57,.47-1.5,1.5-2.5,3.06-2.56,3.26-.13,6.53-.22,9.79-.1,3.5,.13,7,.54,10.5,.74,.94,.05,2.38,.43,2.5-1.01,.1-1.32-1.35-1.24-2.24-1.39-6.03-1.02-12.09-1.83-18.22-1.69-5.96,.13-8.61,1.96-10.52,7.64-1.27,3.76-2.99,7.19-5.57,10.19-.26,.29-.5,.58-.93,1.08h0Z"/>
      <path class="cls-1" d="M93.44,81.38c-6.2,5.95-3.91,14.67,3.6,17.16,4.02,1.33,7.81,1.15,10.94-2.05,3.38-3.45,4.99-7.58,3.71-12.39-.97-3.67-3.63-5.65-7.37-6.05-4.47-.48-8.31,1.03-10.89,3.33h0Z"/>
    </g>
  </g>
</svg>