<?xml version="1.0" encoding="UTF-8"?>
<svg id="Layer_2" data-name="Layer 2" xmlns="http://www.w3.org/2000/svg" viewBox="0 0 291.71 304.19">
  <defs>
    <style>
      .cls-1 {
        fill: #fff;
      }

      .cls-2 {
        fill: #3c3c3b;
      }
    </style>
  </defs>
  <g id="Capa_1" data-name="Capa 1">
    <g>
      <path class="cls-2" d="M199.74,124.08c-12.22-16.52-24.53-25.67-48.05-33.01-10.51-3.28-35.37-7.03-37.88-27.32-3.34-26.86-14.9-41.72-47.73-52.98C47.25,4.31,15.29-6.01,4.46,4.52c-7.73,7.51-3.84,46.05-.07,66.23,5.64,30.28,26.22,44.85,51.61,49.2,20.15,3.45,24.23,27.81,26.24,38.64,3.18,17.13,4.95,32.53,29.28,49.76,20.6,14.6,47.68,11.28,62.14,26.15,14.46,14.87,11.53,36.78,34.92,56.62,45.64,38.71,108.99-15.71,72.04-70.04-17.25-25.36-41.15-21.62-55.61-36.5-14.46-14.88-2.5-29.76-25.26-60.5Z"/>
      <path class="cls-1" d="M28.61,31.86c-13.48,13.11-10.94,37.6,5.69,54.7,16.63,17.11,41.04,20.34,54.52,7.23,13.48-13.11,10.94-37.6-5.7-54.71-16.62-17.1-41.03-20.34-54.52-7.23Z"/>
      <path class="cls-1" d="M113.94,122.85c-16.15,15.7-15.18,41.82,4.74,62.31,19.93,20.5,49.18,24.37,65.33,8.67,16.15-15.71,13.11-45.05-6.82-65.55-19.92-20.49-47.09-21.13-63.25-5.42Z"/>
      <path class="cls-1" d="M208.63,219.84c-12.4,12.05-10.05,34.57,5.23,50.29,15.29,15.73,37.73,18.7,50.12,6.65,12.39-12.05,10.05-34.56-5.24-50.29-15.28-15.72-37.73-18.69-50.12-6.64Z"/>
    </g>
  </g>
</svg>