<?xml version="1.0" encoding="UTF-8"?>
<svg id="Layer_2" data-name="Layer 2" xmlns="http://www.w3.org/2000/svg" viewBox="0 0 351.86 241.36">
  <defs>
    <style>
      .cls-1, .cls-2 {
        fill: #fff;
        stroke: #3c3c3b;
        stroke-linejoin: round;
        stroke-width: 12.18px;
      }

      .cls-2 {
        stroke-linecap: round;
      }
    </style>
  </defs>
  <g id="Capa_1" data-name="Capa 1">
    <g>
      <g>
        <polygon class="cls-1" points="8.06 57.64 60.73 15.68 162.03 6.09 114.68 47.49 8.06 57.64"/>
        <path class="cls-1" d="M138,157.42c.62,3.28-1.54,6.44-4.82,7.05l-100.15,9.01c-3.28,.62-6.44-1.54-7.05-4.83L6.19,63.21c-.62-3.28,1.54-6.44,4.82-7.06l100.14-9.01c3.28-.61,6.44,1.54,7.05,4.83l19.78,105.45Z"/>
        <polygon class="cls-1" points="162.66 6.51 182.12 110.23 137.09 161.88 115.41 46.34 162.66 6.51"/>
      </g>
      <g>
        <polygon class="cls-2" points="163.94 90.97 230.99 55.46 345.17 65.87 284.12 101.89 163.94 90.97"/>
        <path class="cls-1" d="M287.11,228.47c0,3.76-3.05,6.81-6.81,6.81l-112.77-10.82c-3.76,0-6.81-3.05-6.81-6.81V96.75c0-3.76,3.05-6.81,6.81-6.81l112.77,10.82c3.76,0,6.81,3.05,6.81,6.81v120.9Z"/>
        <polygon class="cls-2" points="345.77 66.47 345.77 185.37 285.17 233.21 285.17 100.76 345.77 66.47"/>
      </g>
    </g>
  </g>
</svg>