<?xml version="1.0" encoding="UTF-8"?>
<svg id="Layer_2" data-name="Layer 2" xmlns="http://www.w3.org/2000/svg" viewBox="0 0 372.27 313.78">
  <defs>
    <style>
      .cls-1 {
        fill: #3c3c3b;
      }
    </style>
  </defs>
  <g id="Capa_1" data-name="Capa 1">
    <path class="cls-1" d="M329.19,226.78c-16.41-.16-30.79,8.81-38.32,22.16l-59.19-34.67c2.26-5.59,3.58-11.66,3.64-18.06,.23-24.6-17.56-45.12-41.05-49.14l.59-60.76c20.27-3.53,35.79-21.08,36-42.4C231.1,19.9,211.81,.23,187.79,0c-24.02-.23-43.69,19.05-43.92,43.08-.21,21.32,14.97,39.17,35.18,43.08l-.59,60.76c-23.57,3.56-41.75,23.74-41.99,48.33-.04,3.89,.42,7.66,1.24,11.3l-62.99,30.69c-7.81-8.05-18.7-13.11-30.8-13.22C19.9,223.79,.24,243.08,0,267.1c-.23,24.02,19.05,43.68,43.08,43.92,24.02,.23,43.69-19.05,43.92-43.07,.06-6.18-1.19-12.06-3.46-17.4l60.09-29.28c8.57,14.17,24.02,23.73,41.79,23.9,15.23,.15,28.9-6.62,38.07-17.35l62.24,36.45c-.26,1.84-.44,3.69-.45,5.6-.23,24.02,19.05,43.68,43.08,43.92,24.02,.23,43.69-19.05,43.92-43.08,.23-24.02-19.05-43.69-43.08-43.92Z"/>
  </g>
</svg>