<?xml version="1.0" encoding="UTF-8"?>
<svg id="Layer_2" data-name="Layer 2" xmlns="http://www.w3.org/2000/svg" viewBox="0 0 206.11 335.67">
  <defs>
    <style>
      .cls-1 {
        fill: #fff;
      }

      .cls-2 {
        fill: none;
        stroke: #3c3c3b;
        stroke-linecap: round;
        stroke-miterlimit: 10;
        stroke-width: 8.56px;
      }

      .cls-3 {
        fill: #3c3c3b;
      }
    </style>
  </defs>
  <g id="Capa_1" data-name="Capa 1">
    <g>
      <g>
        <path class="cls-3" d="M103.05,335.67C46.23,335.67,0,289.44,0,232.61c0-21.41,8.05-39.67,16.77-56.22C36.38,139.12,88.58,30.2,89.11,29.1L103.05,0l13.94,29.1c.53,1.1,52.83,110.22,72.35,147.29,8.71,16.54,16.77,34.81,16.77,56.23,0,56.83-46.23,103.06-103.06,103.06Z"/>
        <path class="cls-1" d="M175.66,183.59c-19.88-37.76-72.61-147.81-72.61-147.81,0,0-52.62,109.85-72.61,147.81-7.87,14.95-14.99,30.86-14.99,49.02,0,48.38,39.22,87.6,87.6,87.6s87.6-39.22,87.6-87.6c0-18.16-7.12-34.08-14.99-49.02Z"/>
      </g>
      <path class="cls-2" d="M103.05,289.91c-33.71,0-61.04-27.33-61.04-61.04"/>
    </g>
  </g>
</svg>